<svg xmlns="http://www.w3.org/2000/svg" xmlns:xlink="http://www.w3.org/1999/xlink" width="500" zoomAndPan="magnify" viewBox="0 0 375 374.999991" height="500" preserveAspectRatio="xMidYMid meet" version="1.0"><defs><g/><clipPath id="011289560d"><path d="M 0.671875 10.71875 L 366.328125 10.71875 L 366.328125 375 L 0.671875 375 Z M 0.671875 10.71875 " clip-rule="nonzero"/></clipPath><clipPath id="451f10190e"><path d="M 183.5 10.71875 C 82.527344 10.71875 0.671875 92.574219 0.671875 193.546875 C 0.671875 294.519531 82.527344 376.375 183.5 376.375 C 284.472656 376.375 366.328125 294.519531 366.328125 193.546875 C 366.328125 92.574219 284.472656 10.71875 183.5 10.71875 Z M 183.5 10.71875 " clip-rule="nonzero"/></clipPath><clipPath id="9e2f838a06"><path d="M 0.671875 0.71875 L 366.328125 0.71875 L 366.328125 365 L 0.671875 365 Z M 0.671875 0.71875 " clip-rule="nonzero"/></clipPath><clipPath id="a186441056"><path d="M 183.5 0.71875 C 82.527344 0.71875 0.671875 82.574219 0.671875 183.546875 C 0.671875 284.519531 82.527344 366.375 183.5 366.375 C 284.472656 366.375 366.328125 284.519531 366.328125 183.546875 C 366.328125 82.574219 284.472656 0.71875 183.5 0.71875 Z M 183.5 0.71875 " clip-rule="nonzero"/></clipPath><clipPath id="7866deec63"><rect x="0" width="367" y="0" height="365"/></clipPath><clipPath id="6f17fefe77"><path d="M 7 22 L 307 22 L 307 375 L 7 375 Z M 7 22 " clip-rule="nonzero"/></clipPath><clipPath id="bf90bfd9ec"><rect x="0" width="310" y="0" height="375"/></clipPath><clipPath id="fdc288a571"><rect x="0" width="367" y="0" height="375"/></clipPath></defs><g transform="matrix(1, 0, 0, 1, 4, 0)"><g clip-path="url(#fdc288a571)"><g clip-path="url(#011289560d)"><g clip-path="url(#451f10190e)"><g transform="matrix(1, 0, 0, 1, 0, 10)"><g clip-path="url(#7866deec63)"><g clip-path="url(#9e2f838a06)"><g clip-path="url(#a186441056)"><path fill="#ffffff" d="M 0.671875 0.71875 L 366.328125 0.71875 L 366.328125 366.375 L 0.671875 366.375 Z M 0.671875 0.71875 " fill-opacity="1" fill-rule="nonzero"/></g></g></g></g></g></g><g transform="matrix(1, 0, 0, 1, 51, 0)"><g clip-path="url(#bf90bfd9ec)"><g clip-path="url(#6f17fefe77)"><g fill="#000000" fill-opacity="1"><g transform="translate(8.065869, 376.577819)"><g><path d="M 247.625 -130.546875 C 249.800781 -138.160156 253.472656 -143.734375 258.640625 -147.265625 C 263.804688 -150.804688 269.242188 -152.578125 274.953125 -152.578125 C 281.210938 -152.578125 286.722656 -150.671875 291.484375 -146.859375 C 296.242188 -143.054688 298.625 -137.617188 298.625 -130.546875 C 298.625 -127.285156 298.078125 -124.15625 296.984375 -121.15625 C 289.097656 -95.320312 276.25 -73.363281 258.4375 -55.28125 C 240.625 -37.195312 219.953125 -23.460938 196.421875 -14.078125 C 172.898438 -4.691406 148.359375 0 122.796875 0 C 98.046875 0 76.351562 -4.144531 57.71875 -12.4375 C 39.09375 -20.738281 24.679688 -32.160156 14.484375 -46.703125 C 4.285156 -61.253906 -0.8125 -77.644531 -0.8125 -95.875 C -0.8125 -106.75 0.679688 -118.03125 3.671875 -129.71875 C 6.660156 -141.414062 11.414062 -152.566406 17.9375 -163.171875 C 24.46875 -173.785156 32.96875 -183.035156 43.4375 -190.921875 C 53.914062 -198.804688 66.769531 -204.109375 82 -206.828125 C 71.394531 -219.609375 66.09375 -234.429688 66.09375 -251.296875 C 66.09375 -265.441406 69.015625 -278.703125 74.859375 -291.078125 C 80.703125 -303.453125 88.65625 -314.394531 98.71875 -323.90625 C 108.78125 -333.425781 120.335938 -340.835938 133.390625 -346.140625 C 146.453125 -351.453125 160.328125 -354.109375 175.015625 -354.109375 C 192.148438 -354.109375 207.445312 -350.84375 220.90625 -344.3125 C 234.363281 -337.78125 244.832031 -328.800781 252.3125 -317.375 C 259.789062 -305.957031 263.125 -293.039062 262.3125 -278.625 C 261.769531 -269.65625 258.503906 -262.789062 252.515625 -258.03125 C 246.535156 -253.269531 240.007812 -250.890625 232.9375 -250.890625 C 225.863281 -250.890625 219.609375 -253.335938 214.171875 -258.234375 C 208.734375 -263.128906 204.519531 -270.609375 201.53125 -280.671875 C 200.164062 -285.566406 196.765625 -289.914062 191.328125 -293.71875 C 185.890625 -297.53125 180.039062 -299.4375 173.78125 -299.4375 C 160.457031 -299.4375 150.125 -295.015625 142.78125 -286.171875 C 135.4375 -277.335938 131.765625 -266.257812 131.765625 -252.9375 C 131.765625 -243.414062 134.890625 -235.050781 141.140625 -227.84375 C 147.398438 -220.632812 156.648438 -217.03125 168.890625 -217.03125 C 180.316406 -216.757812 188.679688 -213.15625 193.984375 -206.21875 C 199.285156 -199.28125 201.9375 -191.597656 201.9375 -183.171875 C 201.9375 -173.648438 198.671875 -164.738281 192.140625 -156.4375 C 185.617188 -148.144531 176.238281 -144 164 -144 C 153.394531 -144 141.425781 -147.945312 128.09375 -155.84375 C 108.238281 -155.84375 92.941406 -150.945312 82.203125 -141.15625 C 71.460938 -131.363281 66.09375 -117.351562 66.09375 -99.125 C 66.09375 -85.257812 71.054688 -73.835938 80.984375 -64.859375 C 90.910156 -55.890625 105.253906 -51.40625 124.015625 -51.40625 C 140.335938 -51.40625 156.789062 -54.257812 173.375 -59.96875 C 189.96875 -65.675781 204.925781 -74.378906 218.25 -86.078125 C 231.582031 -97.773438 241.375 -112.597656 247.625 -130.546875 Z M 247.625 -130.546875 "/></g></g></g></g></g></g></g></g></svg>